<?xml version="1.0" encoding="utf-8"?>
<svg version="1.1" xmlns:xlink="http://www.w3.org/1999/xlink" width="10px" height="18px" xmlns="http://www.w3.org/2000/svg">
  <g transform="matrix(1 0 0 1 -816 -431 )">
    <path d="M 9.814453125 10.8792613636364  C 9.93815104166667 11.0411931818182  10 11.2329545454545  10 11.4545454545455  C 10 11.6761363636364  9.93815104166667 11.8678977272727  9.814453125 12.0298295454545  L 5.439453125 17.7571022727273  C 5.31575520833333 17.9190340909091  5.16927083333333 18  5 18  C 4.83072916666667 18  4.68424479166667 17.9190340909091  4.560546875 17.7571022727273  L 0.185546875 12.0298295454545  C 0.0618489583333333 11.8678977272727  0 11.6761363636364  0 11.4545454545455  C 0 11.2329545454545  0.0618489583333333 11.0411931818182  0.185546875 10.8792613636364  C 0.309244791666667 10.7173295454545  0.455729166666667 10.6363636363636  0.625 10.6363636363636  L 9.375 10.6363636363636  C 9.54427083333333 10.6363636363636  9.69075520833333 10.7173295454545  9.814453125 10.8792613636364  Z M 9.814453125 5.97017045454545  C 9.93815104166667 6.13210227272727  10 6.32386363636363  10 6.54545454545455  C 10 6.76704545454545  9.93815104166667 6.95880681818182  9.814453125 7.12073863636364  C 9.69075520833333 7.28267045454546  9.54427083333333 7.36363636363636  9.375 7.36363636363636  L 0.625 7.36363636363636  C 0.455729166666667 7.36363636363636  0.309244791666667 7.28267045454546  0.185546875 7.12073863636364  C 0.0618489583333333 6.95880681818182  0 6.76704545454545  0 6.54545454545455  C 0 6.32386363636363  0.0618489583333333 6.13210227272727  0.185546875 5.97017045454545  L 4.560546875 0.242897727272728  C 4.68424479166667 0.0809659090909074  4.83072916666667 0  5 0  C 5.16927083333333 0  5.31575520833333 0.0809659090909074  5.439453125 0.242897727272728  L 9.814453125 5.97017045454545  Z " fill-rule="nonzero" fill="#333333" stroke="none" transform="matrix(1 0 0 1 816 431 )" />
  </g>
</svg>