<?xml version="1.0" encoding="utf-8"?>
<svg version="1.1" xmlns:xlink="http://www.w3.org/1999/xlink" width="570px" height="99px" xmlns="http://www.w3.org/2000/svg">
  <defs>
    <mask fill="white" id="clip1">
      <path d="M 0 99  L 0 0  L 195.08333333333 0  L 210.08333333333 0  L 570 0  L 570 99  L 0 99  Z " fill-rule="evenodd" />
    </mask>
  </defs>
  <g transform="matrix(1 0 0 1 -2482 -1253 )">
    <path d="M 0 99  L 0 0  L 195.08333333333 0  L 210.08333333333 0  L 570 0  L 570 99  L 0 99  Z " fill-rule="nonzero" fill="#ffffff" stroke="none" fill-opacity="0" transform="matrix(1 0 0 1 2482 1253 )" />
    <path d="M 0 99  L 0 0  L 195.08333333333 0  L 210.08333333333 0  L 570 0  L 570 99  L 0 99  Z " stroke-width="10" stroke="#d9001b" fill="none" transform="matrix(1 0 0 1 2482 1253 )" mask="url(#clip1)" />
  </g>
</svg>