<?xml version="1.0" encoding="utf-8"?>
<svg version="1.1" xmlns:xlink="http://www.w3.org/1999/xlink" width="499px" height="46px" xmlns="http://www.w3.org/2000/svg">
  <defs>
    <mask fill="white" id="clip2">
      <path d="M 0 37.375  L 0 8.625  C 0 3.79499999999982  5.12591439688691 0  11.6498054474708 0  L 66.2186109203752 0  L 118.175334758227 0  L 487.350194552529 0  C 493.874085603113 0  499 3.79499999999982  499 8.625  L 499 37.375  C 499 42.2050000000002  493.874085603113 46  487.350194552529 46  L 120.200705818478 46  L 11.6498054474708 46  C 5.12591439688691 46  0 42.2050000000002  0 37.375  Z " fill-rule="evenodd" />
    </mask>
  </defs>
  <g transform="matrix(1 0 0 1 -2517 -1287 )">
    <path d="M 0 37.375  L 0 8.625  C 0 3.79499999999982  5.12591439688691 0  11.6498054474708 0  L 66.2186109203752 0  L 118.175334758227 0  L 487.350194552529 0  C 493.874085603113 0  499 3.79499999999982  499 8.625  L 499 37.375  C 499 42.2050000000002  493.874085603113 46  487.350194552529 46  L 120.200705818478 46  L 11.6498054474708 46  C 5.12591439688691 46  0 42.2050000000002  0 37.375  Z " fill-rule="nonzero" fill="#ffffff" stroke="none" transform="matrix(1 0 0 1 2517 1287 )" />
    <path d="M 0 37.375  L 0 8.625  C 0 3.79499999999982  5.12591439688691 0  11.6498054474708 0  L 66.2186109203752 0  L 118.175334758227 0  L 487.350194552529 0  C 493.874085603113 0  499 3.79499999999982  499 8.625  L 499 37.375  C 499 42.2050000000002  493.874085603113 46  487.350194552529 46  L 120.200705818478 46  L 11.6498054474708 46  C 5.12591439688691 46  0 42.2050000000002  0 37.375  Z " stroke-width="2" stroke="#d9d9d9" fill="none" transform="matrix(1 0 0 1 2517 1287 )" mask="url(#clip2)" />
  </g>
</svg>