<?xml version="1.0" encoding="utf-8"?>
<svg version="1.1" xmlns:xlink="http://www.w3.org/1999/xlink" width="10px" height="4px" xmlns="http://www.w3.org/2000/svg">
  <g transform="matrix(1 0 0 1 -326 -391 )">
    <path d="M 9.814453125 3.86805555555556  C 9.93815104166667 3.78009259259259  10 3.67592592592593  10 3.55555555555556  C 10 3.43518518518519  9.93815104166667 3.33101851851852  9.814453125 3.24305555555556  L 5.439453125 0.131944444444445  C 5.31575520833333 0.0439814814814818  5.16927083333333 0  5 0  C 4.83072916666667 0  4.68424479166667 0.0439814814814818  4.560546875 0.131944444444445  L 0.185546875 3.24305555555556  C 0.0618489583333333 3.33101851851852  0 3.43518518518519  0 3.55555555555556  C 0 3.67592592592593  0.0618489583333333 3.78009259259259  0.185546875 3.86805555555556  C 0.309244791666667 3.95601851851852  0.455729166666667 4  0.625 4  L 9.375 4  C 9.54427083333333 4  9.69075520833333 3.95601851851852  9.814453125 3.86805555555556  Z " fill-rule="nonzero" fill="#656565" stroke="none" transform="matrix(1 0 0 1 326 391 )" />
  </g>
</svg>