<?xml version="1.0" encoding="utf-8"?>
<svg version="1.1" xmlns:xlink="http://www.w3.org/1999/xlink" width="12px" height="4px" xmlns="http://www.w3.org/2000/svg">
  <g transform="matrix(1 0 0 1 -835 -388 )">
    <path d="M 11.77734375 3.86805555555556  C 11.92578125 3.78009259259259  12 3.67592592592593  12 3.55555555555556  C 12 3.43518518518519  11.92578125 3.33101851851852  11.77734375 3.24305555555556  L 6.52734375 0.131944444444445  C 6.37890625 0.0439814814814818  6.203125 0  6 0  C 5.796875 0  5.62109375 0.0439814814814818  5.47265625 0.131944444444445  L 0.22265625 3.24305555555556  C 0.07421875 3.33101851851852  0 3.43518518518519  0 3.55555555555556  C 0 3.67592592592593  0.07421875 3.78009259259259  0.22265625 3.86805555555556  C 0.37109375 3.95601851851852  0.546875 4  0.75 4  L 11.25 4  C 11.453125 4  11.62890625 3.95601851851852  11.77734375 3.86805555555556  Z " fill-rule="nonzero" fill="#656565" stroke="none" transform="matrix(1 0 0 1 835 388 )" />
  </g>
</svg>