<?xml version="1.0" encoding="utf-8"?>
<svg version="1.1" xmlns:xlink="http://www.w3.org/1999/xlink" width="10px" height="5px" xmlns="http://www.w3.org/2000/svg">
  <g transform="matrix(1 0 0 1 -1311 -388 )">
    <path d="M 9.814453125 4.83506944444444  C 9.93815104166667 4.72511574074074  10 4.59490740740741  10 4.44444444444444  C 10 4.29398148148148  9.93815104166667 4.16377314814815  9.814453125 4.05381944444444  L 5.439453125 0.164930555555556  C 5.31575520833333 0.0549768518518523  5.16927083333333 0  5 0  C 4.83072916666667 0  4.68424479166667 0.0549768518518523  4.560546875 0.164930555555556  L 0.185546875 4.05381944444444  C 0.0618489583333333 4.16377314814815  0 4.29398148148148  0 4.44444444444444  C 0 4.59490740740741  0.0618489583333333 4.72511574074074  0.185546875 4.83506944444444  C 0.309244791666667 4.94502314814815  0.455729166666667 5  0.625 5  L 9.375 5  C 9.54427083333333 5  9.69075520833333 4.94502314814815  9.814453125 4.83506944444444  Z " fill-rule="nonzero" fill="#656565" stroke="none" transform="matrix(1 0 0 1 1311 388 )" />
  </g>
</svg>