<?xml version="1.0" encoding="utf-8"?>
<svg version="1.1" xmlns:xlink="http://www.w3.org/1999/xlink" width="20px" height="20px" xmlns="http://www.w3.org/2000/svg">
  <g transform="matrix(1 0 0 1 -1268 -385 )">
    <path d="M 10 20  C 4.47715250169205 20  0 15.5228474983079  0 10  C 0 4.47715250169207  4.47715250169205 0  10 0  C 15.522847498308 0  20 4.47715250169207  20 10  C 20 15.5228474983079  15.522847498308 20  10 20  Z M 9.99999987227574 1.42857142857142  C 5.26613058801183 1.42857142857142  1.42857130084718 5.26613071573604  1.42857130084718 10  C 1.42857130084718 14.733869284264  5.26613058801183 18.5714285714286  9.99999987227574 18.5714285714286  C 14.7338691565397 18.5714285714286  18.5714284437044 14.733869284264  18.5714284437044 10  C 18.5714284437044 5.26613071573604  14.7338691565397 1.42857142857142  9.99999987227574 1.42857142857142  Z M 13.5114285714286 7.10714285714286  C 13.5114285714286 8.42142857142858  12.8328571428572 9.35142857142856  11.7614285714286 9.99571428571432  C 10.6985714285714 10.6228571428572  10.3971428571429 11.0914285714286  10.3971428571429 11.9714285714286  L 10.3971428571429 12.5142857142857  L 8.93285714285713 12.5142857142857  L 8.93285714285713 11.7442857142857  C 8.92428571428576 10.64  9.46000000000004 9.88714285714284  10.6057142857143 9.19999999999999  C 11.5771428571429 8.6057142857143  11.9542857142857 8.07857142857142  11.9542857142857 7.18285714285713  C 11.9542857142857 6.1442857142857  11.15 5.38285714285715  9.9028571428571 5.38285714285715  C 8.63999999999999 5.38285714285715  7.83571428571429 6.12857142857141  7.7442857142857 7.3257142857143  L 6.31285714285718 7.3257142857143  C 6.40428571428572 5.51714285714286  7.61000000000001 4.07714285714289  9.9614285714286 4.07714285714289  C 12.0714285714286 4.07714285714289  13.5114285714286 5.38285714285715  13.5114285714286 7.10714285714286  Z M 8.71428571428572 15.3771428571429  C 8.71428571428572 14.8328571428572  9.13285714285712 14.4228571428571  9.66857142857145 14.4228571428571  C 10.2128571428572 14.4228571428571  10.6228571428571 14.8328571428572  10.6228571428571 15.3771428571429  C 10.622946347774 15.3824250848977  10.6229909526172 15.3877079716811  10.6229909526172 15.3929909526171  C 10.6229909526172 15.9113496392441  10.2027782106726 16.3315623811886  9.68441952404572 16.3315623811886  C 9.67913654310962 16.3315623811886  9.67385365632629 16.3315177763455  9.66857142857145 16.3314285714285  C 9.66473870985033 16.3314753171366  9.6609057417063 16.3314986906424  9.65707273792907 16.3314986906424  C 9.13634711665998 16.3314986906424  8.71421559507189 15.9093671690543  8.71421559507189 15.3886415477853  C 8.71421559507189 15.384808544008  8.71423896857772 15.3809755758639  8.71428571428572 15.3771428571429  Z " fill-rule="nonzero" fill="#888888" stroke="none" transform="matrix(1 0 0 1 1268 385 )" />
  </g>
</svg>