<?xml version="1.0" encoding="utf-8"?>
<svg version="1.1" xmlns:xlink="http://www.w3.org/1999/xlink" width="276px" height="51px" xmlns="http://www.w3.org/2000/svg">
  <defs>
    <mask fill="white" id="clip20">
      <path d="M 0 41  L 0 10  C 0 4.40000000000009  4.39999999999964 0  10 0  L 266 0  C 271.6 0  276 4.40000000000009  276 10  L 276 41  C 276 46.5999999999999  271.6 51  266 51  L 185.693693693692 51  L 10 51  C 4.39999999999964 51  0 46.5999999999999  0 41  Z " fill-rule="evenodd" />
    </mask>
  </defs>
  <g transform="matrix(1 0 0 1 -2369 -4454 )">
    <path d="M 0 41  L 0 10  C 0 4.40000000000009  4.39999999999964 0  10 0  L 266 0  C 271.6 0  276 4.40000000000009  276 10  L 276 41  C 276 46.5999999999999  271.6 51  266 51  L 185.693693693692 51  L 10 51  C 4.39999999999964 51  0 46.5999999999999  0 41  Z " fill-rule="nonzero" fill="#ffffff" stroke="none" transform="matrix(1 0 0 1 2369 4454 )" />
    <path d="M 0 41  L 0 10  C 0 4.40000000000009  4.39999999999964 0  10 0  L 266 0  C 271.6 0  276 4.40000000000009  276 10  L 276 41  C 276 46.5999999999999  271.6 51  266 51  L 185.693693693692 51  L 10 51  C 4.39999999999964 51  0 46.5999999999999  0 41  Z " stroke-width="2" stroke="#7f7f7f" fill="none" transform="matrix(1 0 0 1 2369 4454 )" mask="url(#clip20)" />
  </g>
</svg>