<?xml version="1.0" encoding="utf-8"?>
<svg version="1.1" xmlns:xlink="http://www.w3.org/1999/xlink" width="12px" height="12px" viewBox="617 267.5  12 12" xmlns="http://www.w3.org/2000/svg">
  <path d="M 623 267.5  C 626.36 267.5  629 270.14  629 273.5  C 629 276.86  626.36 279.5  623 279.5  C 619.64 279.5  617 276.86  617 273.5  C 617 270.14  619.64 267.5  623 267.5  Z " fill-rule="nonzero" fill="#ffffff" stroke="none" />
  <path d="M 623 268  C 626.08 268  628.5 270.42  628.5 273.5  C 628.5 276.58  626.08 279  623 279  C 619.92 279  617.5 276.58  617.5 273.5  C 617.5 270.42  619.92 268  623 268  Z " stroke-width="1" stroke="#797979" fill="none" />
  <path d="M 623 276.5  C 621.32 276.5  620 275.18  620 273.5  C 620 271.82  621.32 270.5  623 270.5  C 624.68 270.5  626 271.82  626 273.5  C 626 275.18  624.68 276.5  623 276.5  " fill-rule="nonzero" fill="#797979" stroke="none" />
</svg>