<?xml version="1.0" encoding="utf-8"?>
<svg version="1.1" xmlns:xlink="http://www.w3.org/1999/xlink" width="12px" height="12px" viewBox="665 267.5  12 12" xmlns="http://www.w3.org/2000/svg">
  <path d="M 671 267.5  C 674.36 267.5  677 270.14  677 273.5  C 677 276.86  674.36 279.5  671 279.5  C 667.64 279.5  665 276.86  665 273.5  C 665 270.14  667.64 267.5  671 267.5  Z " fill-rule="nonzero" fill="#ffffff" stroke="none" />
  <path d="M 671 268  C 674.08 268  676.5 270.42  676.5 273.5  C 676.5 276.58  674.08 279  671 279  C 667.92 279  665.5 276.58  665.5 273.5  C 665.5 270.42  667.92 268  671 268  Z " stroke-width="1" stroke="#797979" fill="none" />
  <path d="M 671 276.5  C 669.32 276.5  668 275.18  668 273.5  C 668 271.82  669.32 270.5  671 270.5  C 672.68 270.5  674 271.82  674 273.5  C 674 275.18  672.68 276.5  671 276.5  " fill-rule="nonzero" fill="#797979" stroke="none" />
</svg>