<?xml version="1.0" encoding="utf-8"?>
<svg version="1.1" xmlns:xlink="http://www.w3.org/1999/xlink" width="15px" height="29px" xmlns="http://www.w3.org/2000/svg">
  <g transform="matrix(1 0 0 1 -1561 -180 )">
    <path d="M 14.7216796875 17.5276988636364  C 14.9072265625 17.7885890151515  15 18.0975378787879  15 18.4545454545455  C 15 18.811553030303  14.9072265625 19.1205018939394  14.7216796875 19.3813920454545  L 8.1591796875 28.6086647727273  C 7.9736328125 28.8695549242424  7.75390625 29  7.5 29  C 7.24609375 29  7.0263671875 28.8695549242424  6.8408203125 28.6086647727273  L 0.2783203125 19.3813920454545  C 0.0927734375 19.1205018939394  0 18.811553030303  0 18.4545454545455  C 0 18.0975378787879  0.0927734375 17.7885890151515  0.2783203125 17.5276988636364  C 0.4638671875 17.2668087121212  0.68359375 17.1363636363636  0.9375 17  L 14.0625 17  C 14.31640625 17.1363636363636  14.5361328125 17.2668087121212  14.7216796875 17.5276988636364  Z M 14.7216796875 9.61860795454546  C 14.9072265625 9.8794981060606  15 10.188446969697  15 10.5454545454545  C 15 10.9024621212121  14.9072265625 11.2114109848485  14.7216796875 11.4723011363636  C 14.5361328125 11.7331912878788  14.31640625 11.8636363636364  14.0625 12  L 0.9375 12  C 0.68359375 11.8636363636364  0.4638671875 11.7331912878788  0.2783203125 11.4723011363636  C 0.0927734375 11.2114109848485  0 10.9024621212121  0 10.5454545454545  C 0 10.188446969697  0.0927734375 9.8794981060606  0.2783203125 9.61860795454546  L 6.8408203125 0.391335227272729  C 7.0263671875 0.130445075757573  7.24609375 0  7.5 0  C 7.75390625 0  7.9736328125 0.130445075757573  8.1591796875 0.391335227272729  L 14.7216796875 9.61860795454546  Z " fill-rule="nonzero" fill="#333333" stroke="none" transform="matrix(1 0 0 1 1561 180 )" />
  </g>
</svg>